<?xml version="1.0" encoding="utf-8"?>
<!-- Generator: Adobe Illustrator 19.2.1, SVG Export Plug-In . SVG Version: 6.00 Build 0)  -->
<svg version="1.1" id="Layer_1" xmlns="http://www.w3.org/2000/svg" xmlns:xlink="http://www.w3.org/1999/xlink" x="0px" y="0px"
	 viewBox="0 0 176.6 36" style="enable-background:new 0 0 176.6 36;" xml:space="preserve">
<style type="text/css">
	.st0{fill:#81B441;}
	.st1{fill:#545454;}
</style>
<path class="st0" d="M23.8,5c-0.9-0.5-3.3-0.2-6.3,0.7C12.2,9.3,7.8,14.5,7.5,23c-0.1,0.2-0.6,0-0.7-0.1c-1.4-2.7-2-5.5-0.8-9.6
	c0.2-0.4-0.5-0.8-0.6-0.7c-0.3,0.3-1.3,1.4-2,2.6c-3.5,6.1-1.2,14,5,17.5c6.2,3.4,14,1.2,17.5-5C29.8,20.5,26.1,6.3,23.8,5z"/>
<g>
	<path class="st1" d="M45.9,8.4c-7.3,0-12.7,5.5-12.7,13c0,7.6,5.3,12.9,12.9,12.9c3.8,0,6.9-1.2,9.3-3.7c0.7-0.8,0.8-1.5,0.8-1.8
		c0-1.2-0.9-2.1-2.2-2.1c-0.6,0-1.2,0.2-1.8,0.8c-1.4,1.3-3.2,2.6-6.2,2.6c-4.2,0-7.6-3.1-7.8-7.1H55c1.8,0,2.7-0.8,2.7-2.6
		c0-0.5,0-0.9-0.1-1.6C56.7,12.3,52.3,8.4,45.9,8.4z M45.9,12.5c4,0,6.5,2.5,6.7,6.6H38.4C38.8,15.3,42,12.5,45.9,12.5z M73.5,8.4
		c-3.3,0-6.6,1.9-7.9,4.6v-1.6c0-2.6-2-2.7-2.4-2.7c-1.2,0-2.4,0.7-2.4,2.7v19.9c0,2.6,2.1,2.8,2.5,2.8s2.5-0.1,2.5-2.8V20.6
		c0-4.6,2.6-7.9,6.4-7.9c3.6,0,5.4,2.4,5.4,7.3v11.2c0,2.6,2.1,2.8,2.5,2.8s2.5-0.1,2.5-2.8V18.4C82.7,13.6,80.3,8.4,73.5,8.4z
		 M105.6,8.7c-1.2,0-2,0.7-2.5,2l-6.9,17.4l-6.9-17.4c-0.5-1.4-1.4-2-2.6-2c-1.4,0-2.5,1.1-2.5,2.4c0,0.3,0,0.8,0.3,1.4l7.9,18.8
		c0.9,2.3,2.5,2.7,3.6,2.7c1.1,0,2.7-0.5,3.6-2.7l8-18.9c0.3-0.7,0.3-1.1,0.3-1.4C108,9.7,107,8.7,105.6,8.7z M120.2,8.4
		c-3.2,0-6.2,0.9-8.5,2.5c-0.8,0.5-1.1,1.2-1.1,2c0,1.1,0.9,2,2,2c0.5,0,1-0.2,1.5-0.5c1.9-1.3,3.7-1.9,5.7-1.9
		c3.7,0,5.9,1.9,5.9,5.2v0.5c-8.4,0-16.9,1-16.9,8.3c0,5.2,4.5,7.6,8.9,7.6c3.5,0,6.4-1.4,8.2-4.1v1.3c0,1.9,1.3,2.6,2.4,2.6
		c0.2,0,2.3-0.1,2.3-2.6V18.1C130.5,12,126.7,8.4,120.2,8.4L120.2,8.4z M124.6,22h1.1v1.2c0,4.3-2.7,7-6.9,7c-1.1,0-4.9-0.3-4.9-3.7
		C113.9,22.5,120,22,124.6,22z M143.7,13.3c2.2,0,2.3-1.7,2.3-2.1c0-1-0.6-2.1-2.3-2.1h-4.5V4.5c0-2.1-1.3-2.8-2.5-2.8
		c-0.4,0-2.5,0.1-2.5,2.8v21.8c0,5,2.5,7.7,7.2,7.7c1.2,0,2.4-0.2,3.2-0.6c0.9-0.4,1.4-1.2,1.4-2c0-1.2-0.8-2-2-2
		c-0.2,0-0.5,0.1-0.9,0.2c-0.4,0.1-0.7,0.1-1,0.1c-1.9,0-2.8-1.2-2.8-3.9V13.3H143.7z M160.4,8.4c-7.6,0-13.2,5.4-13.2,12.9
		c0,3.6,1.3,6.9,3.8,9.3c2.4,2.4,5.8,3.7,9.4,3.7c7.5,0,13.2-5.6,13.2-13C173.6,13.8,168,8.4,160.4,8.4z M160.4,30
		c-5.2,0-8-4.4-8-8.7c0-5.9,4.1-8.6,8-8.6s8,2.7,8,8.6C168.3,27.3,164.2,30,160.4,30z"/>
</g>
</svg>
