<?xml version="1.0" encoding="utf-8"?>
<!-- Generator: Adobe Illustrator 20.0.0, SVG Export Plug-In . SVG Version: 6.00 Build 0)  -->
<svg version="1.1" id="Capa_1" xmlns="http://www.w3.org/2000/svg" xmlns:xlink="http://www.w3.org/1999/xlink" x="0px" y="0px"
	 viewBox="0 0 40.4 40.4" style="enable-background:new 0 0 40.4 40.4;" xml:space="preserve">
<style type="text/css">
	.st0{fill:#FFFFFF;}
</style>
<g>
	<path class="st0" d="M24.3,13.3h-1.2V11c0-0.4-0.3-0.7-0.7-0.7h-1.1l-0.8-2.5c-0.1-0.3-0.4-0.5-0.7-0.5h-0.7l-2.8-6.9
		C16.3,0.2,16,0,15.7,0c-0.3,0-0.5,0.2-0.6,0.4l-2.8,6.9h-0.7c-0.3,0-0.6,0.2-0.7,0.5l-0.8,2.5H9.1c-0.4,0-0.7,0.3-0.7,0.7v2.3H7.2
		c-0.4,0-0.7,0.3-0.7,0.7v17.2c0,0.4,0.3,0.7,0.7,0.7h1.1v7.9c0,0.4,0.3,0.7,0.7,0.7c0.4,0,0.7-0.3,0.7-0.7v-7.9h1.9v7.9
		c0,0.4,0.3,0.7,0.7,0.7c0.4,0,0.7-0.3,0.7-0.7v-7.9h5.7v7.9c0,0.4,0.3,0.7,0.7,0.7c0.4,0,0.7-0.3,0.7-0.7v-7.9h1.9v7.9
		c0,0.4,0.3,0.7,0.7,0.7s0.7-0.3,0.7-0.7v-7.9h1.1c0.4,0,0.7-0.3,0.7-0.7V14C25,13.6,24.7,13.3,24.3,13.3z M15.7,2.5l2,4.8h-4
		L15.7,2.5z M12.1,8.7h0.6h6h0h0.6l0.5,1.6h-8.2L12.1,8.7z M9.8,11.7h0.9h10h0.9v1.6H9.8V11.7z M23.6,30.5h-1.1h-3.3h-7.1H8.9H7.8
		V14.7h1.2h13.3h1.2V30.5z"/>
	<path class="st0" d="M15.8,15.9h-0.1c-3.7,0-6.6,3-6.6,6.6v0.1c0,3.7,3,6.6,6.6,6.6h0.1c3.7,0,6.6-3,6.6-6.6v-0.1
		C22.4,18.8,19.5,15.9,15.8,15.9z M15.1,17.3v4.6h-4.6C10.7,19.5,12.7,17.6,15.1,17.3z M21.1,22.6c0,2.9-2.4,5.3-5.3,5.3h-0.1
		c-2.7,0-4.9-2-5.2-4.6h5.3c0.4,0,0.7-0.3,0.7-0.7v-5.3c2.6,0.3,4.6,2.5,4.6,5.2V22.6z"/>
	<path class="st0" d="M13.1,20.7c0.2,0,0.4-0.1,0.5-0.2c0.3-0.3,0.3-0.7,0-1c-0.3-0.3-0.7-0.3-1,0c-0.3,0.3-0.3,0.7,0,1
		C12.7,20.6,12.9,20.7,13.1,20.7z"/>
	<path class="st0" d="M17.9,24.7c-0.3,0.3-0.3,0.7,0,1c0.1,0.1,0.3,0.2,0.5,0.2c0.2,0,0.4-0.1,0.5-0.2c0,0,0,0,0,0
		c0.3-0.3,0.3-0.7,0-1C18.6,24.4,18.2,24.4,17.9,24.7z"/>
	<path class="st0" d="M12.7,24.7c-0.3,0.3-0.3,0.7,0,1c0.1,0.1,0.3,0.2,0.5,0.2c0.2,0,0.4-0.1,0.5-0.2c0.3-0.3,0.3-0.7,0-1
		C13.4,24.4,12.9,24.5,12.7,24.7z"/>
	<path class="st0" d="M18.3,20.6c0.2,0,0.4-0.1,0.5-0.2c0.3-0.3,0.3-0.7,0-1c-0.3-0.3-0.7-0.3-1,0c-0.3,0.3-0.3,0.7,0,1
		C18,20.5,18.2,20.6,18.3,20.6z"/>
	<path class="st0" d="M18.7,22.5c0,0.4,0.3,0.7,0.7,0.7c0,0,0,0,0,0c0.4,0,0.7-0.3,0.7-0.7c0-0.4-0.3-0.7-0.7-0.7
		C19,21.8,18.7,22.1,18.7,22.5z"/>
	<path class="st0" d="M15.8,25.6C15.8,25.6,15.8,25.6,15.8,25.6C15.8,25.6,15.8,25.6,15.8,25.6c-0.4,0-0.7,0.3-0.7,0.7
		c0,0.4,0.3,0.7,0.7,0.7c0,0,0,0,0,0c0,0,0,0,0,0c0.4,0,0.7-0.3,0.7-0.7C16.5,25.9,16.2,25.6,15.8,25.6z"/>
	<path class="st0" d="M34.2,7.8c-0.7-0.7-1.6-1.1-2.6-1.1c-0.8,0-1.5,0.2-2.1,0.7c-0.6-0.4-1.4-0.7-2.1-0.7c-1,0-1.9,0.4-2.6,1.1
		c-0.3,0.3-0.3,0.7,0,1c0.3,0.3,0.7,0.3,1,0c0.4-0.4,1-0.7,1.7-0.7s1.2,0.2,1.7,0.7C29.1,8.9,29.3,9,29.5,9c0.2,0,0.4-0.1,0.5-0.2
		c0.4-0.4,1-0.7,1.7-0.7c0.6,0,1.2,0.2,1.7,0.7c0.3,0.3,0.7,0.3,1,0C34.5,8.5,34.5,8,34.2,7.8z"/>
</g>
</svg>
