<?xml version="1.0" encoding="utf-8"?>
<!-- Generator: Adobe Illustrator 19.2.1, SVG Export Plug-In . SVG Version: 6.00 Build 0)  -->
<svg version="1.1" id="Layer_1" xmlns="http://www.w3.org/2000/svg" xmlns:xlink="http://www.w3.org/1999/xlink" x="0px" y="0px"
	 viewBox="0 0 158.5 46.8" style="enable-background:new 0 0 158.5 46.8;" xml:space="preserve">
<style type="text/css">
	.st0{fill:#F2484B;}
	.st1{fill:#F2EBD9;}
	.st2{fill:#6DA8D6;}
	.st3{fill:#98D9D5;}
	.st4{fill:#ECF0F1;}
	.st5{fill:#082947;}
	.st6{fill:#FFCC75;}
</style>
<g>
	<rect x="15.8" y="35.2" class="st0" width="3.5" height="9.2"/>
	<rect x="8.1" y="35.2" class="st1" width="7.7" height="9.2"/>
	<rect x="4.6" y="35.2" class="st0" width="3.5" height="9.2"/>
	<rect x="2.7" y="16.7" class="st0" width="18.5" height="18.5"/>
	<rect x="4.7" y="13.4" class="st1" width="14.3" height="3.2"/>
	<polygon class="st0" points="16.4,10.2 7.5,10.2 6.5,13.4 17.3,13.4 	"/>
	<polygon class="st2" points="11.9,2.3 8.7,10.2 15.2,10.2 	"/>
	<path class="st3" d="M12.7,19.5l-0.8-0.1v6.5H5.4l0.1,0.8c0.4,3.2,3.1,5.6,6.4,5.6H12c3.5,0,6.4-2.9,6.4-6.4v-0.1
		C18.4,22.6,16,19.9,12.7,19.5z"/>
	<path class="st4" d="M11.1,19.5c-2.9,0.4-5.2,2.7-5.6,5.6l-0.1,0.8h6.5v-6.5L11.1,19.5z"/>
	<g>
		<path class="st5" d="M21.2,15.9h-1.3v-2.5c0-0.4-0.3-0.7-0.7-0.7h-1.2L17.1,10c-0.1-0.3-0.4-0.5-0.7-0.5h-0.7l-3-7.4
			c-0.1-0.3-0.4-0.5-0.7-0.5s-0.6,0.2-0.7,0.5l-3,7.4H7.5c-0.3,0-0.6,0.2-0.7,0.5L6,12.7H4.7C4.3,12.7,4,13,4,13.4v2.5H2.7
			c-0.4,0-0.7,0.3-0.7,0.7v18.5c0,0.4,0.3,0.7,0.7,0.7h1.2v9.2H20v-9.2h1.2c0.4,0,0.7-0.3,0.7-0.7V16.7
			C21.9,16.3,21.6,15.9,21.2,15.9z M11.9,4.3L14,9.5H9.8L11.9,4.3z M8,10.9h7.8l0.5,1.8H7.5L8,10.9z M5.5,14.2h12.9v1.8H5.5V14.2z
			 M7.3,43.7h-2v-7.8h2V43.7z M15,43.7H8.8v-7.8H15V43.7z M18.5,43.7h-2v-7.8h2V43.7z M20.4,34.4h-17v-17h17V34.4z"/>
		<path d="M12,18.7h-0.1c-3.9,0-7.1,3.2-7.1,7.1V26c0,3.9,3.2,7.1,7.1,7.1H12c3.9,0,7.1-3.2,7.1-7.1v-0.1
			C19.1,21.9,15.9,18.7,12,18.7z M11.2,20.2v5h-5C6.5,22.6,8.6,20.5,11.2,20.2z M17.6,26c0,3.1-2.5,5.7-5.7,5.7h-0.1
			c-2.9,0-5.3-2.2-5.6-5h5.7c0.4,0,0.7-0.3,0.7-0.7v-5.7c2.8,0.3,5,2.7,5,5.6V26z"/>
		<path d="M9.6,23.6c-0.1,0.1-0.3,0.2-0.5,0.2c-0.2,0-0.4-0.1-0.5-0.2c-0.3-0.3-0.3-0.8,0-1c0.3-0.3,0.8-0.3,1,0S9.9,23.4,9.6,23.6z
			"/>
		<path d="M15.3,29.2c-0.1,0.1-0.3,0.2-0.5,0.2c-0.2,0-0.4-0.1-0.5-0.2c-0.3-0.3-0.3-0.8,0-1c0.3-0.3,0.8-0.3,1,0
			C15.6,28.5,15.6,28.9,15.3,29.2z"/>
		<path d="M9.7,29.3c-0.1,0.1-0.3,0.2-0.5,0.2c-0.2,0-0.4-0.1-0.5-0.2c-0.3-0.3-0.3-0.8,0-1c0.3-0.3,0.8-0.3,1,0
			C9.9,28.5,9.9,29,9.7,29.3z"/>
		<path d="M15.2,23.6c-0.1,0.1-0.3,0.2-0.5,0.2c-0.2,0-0.4-0.1-0.5-0.2c-0.3-0.3-0.3-0.8,0-1c0.3-0.3,0.8-0.3,1,0
			C15.5,22.8,15.5,23.3,15.2,23.6z"/>
		<path d="M16.6,25.9c0,0.4-0.3,0.7-0.7,0.7c0,0,0,0,0,0c-0.4,0-0.7-0.3-0.7-0.7c0-0.4,0.3-0.7,0.7-0.7
			C16.3,25.1,16.6,25.5,16.6,25.9z"/>
		<path d="M12.7,29.9c0,0.4-0.3,0.7-0.7,0.7h0c-0.4,0-0.7-0.3-0.7-0.7c0-0.4,0.3-0.7,0.7-0.7h0C12.4,29.2,12.7,29.5,12.7,29.9z"/>
		<path class="st6" d="M31.9,10c-0.8-0.8-1.8-1.2-2.8-1.2c-0.8,0-1.6,0.3-2.3,0.7c-0.7-0.5-1.5-0.7-2.3-0.7c-1.1,0-2.1,0.4-2.8,1.2
			c-0.3,0.3-0.3,0.8,0,1c0.3,0.3,0.8,0.3,1,0c0.5-0.5,1.1-0.7,1.8-0.7c0.7,0,1.3,0.3,1.8,0.7c0.1,0.1,0.3,0.2,0.5,0.2
			s0.4-0.1,0.5-0.2c0.5-0.5,1.1-0.7,1.8-0.7c0.7,0,1.3,0.3,1.8,0.7c0.3,0.3,0.8,0.3,1,0C32.1,10.7,32.1,10.3,31.9,10z"/>
	</g>
</g>
<g>
	<path class="st5" d="M56.3,18.2c0,2.3-1.3,4-4,5c1,0.3,1.8,0.6,2.4,1c1.9,1.1,2.8,2.7,2.8,4.9c0,2.1-0.8,3.8-2.4,5
		c-1.6,1.3-3.8,1.9-6.5,1.9c-1,0-2.2-0.1-3.7-0.2c-1.5-0.1-2.6-0.2-3.3-0.2c-0.6,0-1.2,0-1.8,0.1L38,35.8c0,0-0.1,0-0.2,0
		c-0.1,0-0.2,0-0.2,0c-1,0-1.5-0.4-1.5-1.2c0-0.7,0.4-1.1,1.1-1.1c0.2,0,0.5,0,0.9,0.1c0.3,0,0.5,0.1,0.7,0.1c1.2,0,1.8-0.8,1.8-2.5
		V17.3c0-1.7-0.6-2.6-1.8-2.6c-0.2,0-0.4,0-0.7,0.1c-0.4,0.1-0.7,0.1-0.9,0.1c-0.7,0-1.1-0.4-1.1-1.1c0-0.8,0.5-1.2,1.6-1.2h0.4
		l1.7,0.2c0.5,0.1,1.1,0.1,2,0.1c0.9,0,2.1-0.1,3.7-0.2c1.1-0.1,2.2-0.1,3.5-0.1c2.3,0,4.1,0.5,5.4,1.5S56.3,16.4,56.3,18.2z
		 M43.1,19.6c0,1.2,0.1,2,0.3,2.3c0.2,0.3,0.8,0.4,1.8,0.4h1.9c4.1,0,6.1-1.3,6.1-4c0-2.4-1.7-3.6-5-3.6c-2.3,0-3.8,0.1-4.3,0.4
		c-0.5,0.3-0.8,1.1-0.8,2.3V19.6z M43.1,26.6v3.8c0,1.5,0.3,2.4,0.8,2.8c0.5,0.3,1.9,0.5,4.1,0.5c4.3,0,6.4-1.6,6.4-4.8
		c0-3-2.1-4.4-6.2-4.4h-2.9c-1.2,0-1.9,0.3-2.1,0.8C43.1,25.6,43.1,26,43.1,26.6z"/>
	<path class="st5" d="M66.1,25.7v4.5c0,1.1,0,1.8,0,2c0.1,1,0.4,1.5,0.9,1.5c0.1,0,0.4-0.1,0.9-0.2c0.1,0,0.3-0.1,0.5-0.1
		c0.9,0,1.3,0.4,1.3,1.1c0,0.3-0.1,0.6-0.4,0.8c-0.3,0.2-0.7,0.3-1.1,0.3c-0.4,0-0.9-0.1-1.7-0.2c-0.7-0.1-1.3-0.2-1.7-0.2
		c-0.6,0-1.3,0-2,0.1c-0.9,0.1-1.5,0.2-1.8,0.2c-0.9,0-1.4-0.4-1.4-1.2c0-0.8,0.4-1.1,1.2-1.1c0.2,0,0.5,0,0.8,0.1
		c0.4,0.1,0.6,0.1,0.8,0.1c0.6,0,0.9-0.7,1-2.2c0-0.1,0-1.1,0-3v-2.8c0-1.9,0-2.9,0-3c-0.1-1.4-0.5-2.2-1-2.2c-0.2,0-0.4,0-0.8,0.1
		c-0.3,0.1-0.6,0.1-0.7,0.1c-0.8,0-1.2-0.4-1.2-1.1c0-0.8,0.5-1.2,1.5-1.2c0.4,0,0.7,0,0.9,0c0.7,0.1,1.2,0.1,1.4,0.1
		c0.2,0,0.5,0,0.8-0.1c0.4-0.1,0.7-0.1,0.8-0.1c0.7,0,1,0.4,1,1.3c0,0.1,0,0.2,0,0.4c0,0.2,0,0.3,0,0.4c0,0.2,0,0.9-0.1,2.1
		C66.1,23.8,66.1,24.7,66.1,25.7z M64.3,16.7c-0.5,0-1-0.2-1.4-0.6c-0.4-0.4-0.6-0.8-0.6-1.4c0-0.5,0.2-1,0.6-1.3
		c0.4-0.4,0.8-0.6,1.4-0.6c0.5,0,1,0.2,1.4,0.6c0.4,0.4,0.6,0.8,0.6,1.3c0,0.5-0.2,1-0.6,1.4C65.3,16.5,64.8,16.7,64.3,16.7z"/>
	<path class="st5" d="M79.3,17.9c0.6,0,1.3,0.1,2,0.3c0.1-2.2,1.4-3.4,3.9-3.4c1.1,0,1.9,0.3,2.6,0.8c0.7,0.6,1.1,1.3,1.1,2.1
		c0,0.6-0.2,1-0.5,1.4c-0.4,0.4-0.8,0.6-1.3,0.6c-0.4,0-0.7-0.1-1-0.4c-0.3-0.3-0.4-0.6-0.4-0.9c0-0.4,0.3-0.7,0.8-1.1
		c-0.4-0.5-0.8-0.7-1.4-0.7c-1.2,0-1.8,0.8-1.9,2.3c1.7,1.2,2.6,2.7,2.6,4.7c0,1.6-0.6,2.9-1.8,4c-1.2,1.1-2.7,1.6-4.5,1.6
		c-1.3,0-2.6-0.3-3.9-0.9C75.4,28.1,75,28,74.8,28c-0.3,0-0.6,0.1-0.9,0.4c-0.3,0.3-0.4,0.6-0.4,1c0,1.2,1.2,1.8,3.6,1.8h0.2
		c0.2,0,0.4,0,0.6,0c0.2,0,0.4,0,0.4,0c2.2,0,4,0.2,5.3,0.6c1.3,0.4,2.3,1,3,1.8s1.1,1.7,1.1,2.8c0,1.7-0.8,3-2.3,4
		c-1.5,1-3.6,1.5-6.3,1.5c-2.6,0-4.7-0.5-6.2-1.4c-1.5-0.9-2.3-2.2-2.3-3.8c0-1.9,1-3.2,3.1-4c-1.9-0.7-2.8-1.8-2.8-3.3
		c0-1.6,0.9-2.7,2.8-3.3c-0.6-0.8-0.9-1.7-0.9-2.8c0-1.6,0.6-2.9,1.8-3.9C76,18.4,77.5,17.9,79.3,17.9z M79.5,33.5
		c-1.8,0-3.3,0.3-4.3,0.8c-1.1,0.5-1.6,1.3-1.6,2.2c0,0.9,0.5,1.7,1.5,2.2c1,0.5,2.4,0.8,4.2,0.8c1.8,0,3.3-0.3,4.4-0.8
		c1.1-0.6,1.6-1.3,1.6-2.2c0-1-0.5-1.7-1.5-2.3C82.7,33.8,81.3,33.5,79.5,33.5z M79.4,20.2c-1,0-1.9,0.3-2.6,0.9
		c-0.7,0.6-1.1,1.3-1.2,2.2v0.2c0,1,0.3,1.8,1,2.4c0.7,0.6,1.6,0.9,2.7,0.9c1.1,0,2.1-0.3,2.8-0.9c0.7-0.6,1.1-1.4,1.1-2.4
		c0-1-0.4-1.8-1.1-2.4C81.4,20.5,80.5,20.2,79.4,20.2z"/>
	<path class="st5" d="M103.1,13.8c-0.2,1.9-0.3,4.1-0.3,6.7c0.7-1,1.5-1.6,2.2-2c0.8-0.4,1.7-0.6,2.9-0.6c2.3,0,4.1,0.8,5.5,2.4
		c1.4,1.6,2,3.7,2,6.4c0,2.9-0.7,5.2-2.2,7c-1.4,1.7-3.4,2.6-5.8,2.6c-2.4,0-4.1-0.9-5.1-2.6c0.1,0.7,0.1,1,0.1,1.1
		c0,0.8-0.4,1.2-1.2,1.2c-0.8,0-1.2-0.6-1.2-1.7c0-0.3,0-0.6,0-0.7c0-0.5,0-1.1,0-1.7l0.2-2.6v-3.5v-9.2c0-0.8-0.1-1.4-0.3-1.7
		c-0.2-0.3-0.4-0.4-0.8-0.4c-0.1,0-0.4,0-0.9,0.1c-0.3,0-0.5,0.1-0.7,0.1c-0.8,0-1.2-0.4-1.2-1.1c0-0.8,0.5-1.1,1.4-1.1
		c0.3,0,0.5,0,0.7,0l0.8,0.1c0.4,0,0.7,0.1,0.9,0.1c0.3,0,0.6,0,1.1-0.1c0.5-0.1,0.8-0.1,1-0.1c0.5,0,0.8,0.3,0.8,1V13.8z M103,23.7
		c-0.2,0.7-0.2,1.8-0.2,3.1c0,2.3,0.2,3.8,0.6,4.7c0.7,1.7,2.1,2.5,4.1,2.5c1.6,0,2.9-0.6,3.8-1.9c0.9-1.2,1.4-2.9,1.4-5
		c0-2.2-0.4-3.8-1.3-5.1s-2.1-1.8-3.7-1.8c-1.1,0-2.1,0.3-2.9,1C103.8,21.9,103.2,22.7,103,23.7z"/>
	<path class="st5" d="M133.6,25.6c0,0.9-0.1,1.4-0.2,1.6c-0.1,0.2-0.4,0.3-1,0.3h-10.9c-0.3,0-0.5,0-0.6,0.1
		c-0.1,0.1-0.1,0.2-0.1,0.4c0,1.7,0.5,3.2,1.5,4.3c1,1.1,2.3,1.7,3.9,1.7c1,0,1.9-0.3,2.8-0.8c0.8-0.5,1.4-1.2,1.6-2.1l0.3-1
		c0.2-0.6,0.5-0.8,1.1-0.8c0.8,0,1.3,0.4,1.3,1.3c0,1.5-0.8,2.8-2.3,4c-1.5,1.2-3.2,1.7-5.2,1.7c-2.4,0-4.3-0.8-5.7-2.4
		c-1.4-1.6-2.1-3.8-2.1-6.5c0-2.8,0.8-5.1,2.3-6.8c1.5-1.7,3.5-2.6,5.9-2.6c2.2,0,3.9,0.7,5.3,2.2C132.9,21.5,133.6,23.4,133.6,25.6
		z M121.1,24.7c0,0.3,0.3,0.5,0.8,0.5h8.2c0.5,0,0.7-0.2,0.7-0.5c0-1.2-0.5-2.3-1.4-3.2c-0.9-0.9-2-1.3-3.2-1.3
		c-1.3,0-2.5,0.5-3.5,1.4C121.6,22.5,121.1,23.6,121.1,24.7z"/>
	<path class="st5" d="M141.4,19.6v1c1.4-1.7,3.2-2.6,5.5-2.6c1.2,0,2.4,0.3,3.5,0.9c1.1,0.6,1.8,1.4,2.2,2.4
		c0.3,0.8,0.5,1.8,0.5,3.1v6.5c0,1,0,1.6,0,1.8c0.1,0.8,0.4,1.2,0.9,1.2c0.2,0,0.5,0,0.8-0.1c0.3-0.1,0.6-0.1,0.7-0.1
		c0.3,0,0.6,0.1,0.8,0.3c0.2,0.2,0.3,0.5,0.3,0.8c0,0.3-0.1,0.6-0.4,0.9c-0.3,0.2-0.6,0.3-1,0.3c-0.3,0-0.8,0-1.6-0.1
		c-0.7-0.1-1.4-0.1-2.1-0.1c-0.6,0-1.1,0-1.5,0.1c-1.1,0.1-1.8,0.2-1.8,0.2c-0.9,0-1.4-0.4-1.4-1.2c0-0.7,0.4-1.1,1.2-1.1
		c0.2,0,0.4,0,0.6,0.1c0.4,0.1,0.7,0.1,0.8,0.1c0.6,0,0.9-0.6,0.9-1.9v-1.8V28v-2.6c0-1.2-0.1-2.1-0.2-2.5c-0.2-0.9-0.7-1.5-1.3-2
		c-0.8-0.5-1.6-0.8-2.6-0.8c-1.8,0-3.1,0.7-3.9,2c-0.5,0.9-0.8,2.4-0.8,4.6v4.6c0,1,0.1,1.7,0.2,2.1c0.1,0.4,0.4,0.5,0.8,0.5
		c0.2,0,0.4,0,0.8-0.1c0.3-0.1,0.6-0.1,0.8-0.1c0.7,0,1.1,0.4,1.1,1.2c0,0.7-0.5,1.1-1.4,1.1c-0.2,0-0.8-0.1-1.8-0.2
		c-0.5-0.1-1.1-0.1-1.7-0.1c-0.5,0-1.1,0-1.9,0.1c-1,0.1-1.6,0.2-1.7,0.2c-1,0-1.4-0.4-1.4-1.2c0-0.7,0.4-1.1,1.1-1.1
		c0.1,0,0.3,0,0.6,0.1c0.3,0.1,0.6,0.1,0.9,0.1c0.7,0,1.1-0.7,1.1-2V28v-4.2v-1.2c0-0.8-0.1-1.3-0.3-1.6c-0.2-0.3-0.4-0.4-0.8-0.4
		c-0.2,0-0.4,0-0.7,0.1c-0.3,0.1-0.6,0.1-0.7,0.1c-0.8,0-1.3-0.4-1.3-1.1c0-0.8,0.5-1.1,1.5-1.1c0.1,0,0.3,0,0.3,0l1.3,0.1
		c0.4,0,0.7,0,1-0.1c0.6-0.1,0.9-0.1,0.9-0.1C141.1,18.5,141.4,18.9,141.4,19.6z"/>
</g>
</svg>
