<?xml version="1.0" encoding="utf-8"?>
<!-- Generator: Adobe Illustrator 20.1.0, SVG Export Plug-In . SVG Version: 6.00 Build 0)  -->
<svg version="1.1" id="Layer_1" xmlns="http://www.w3.org/2000/svg" xmlns:xlink="http://www.w3.org/1999/xlink" x="0px" y="0px"
	 viewBox="0 0 510 656.9" style="enable-background:new 0 0 510 656.9;" xml:space="preserve">
<style type="text/css">
	.st0{fill:#58595B;}
	.st1{fill:#4B4A4A;}
	.st2{fill:#E05B3D;}
	.st3{fill:#FBD2C0;}
	.st4{fill:#E4BCAC;}
	.st5{fill:#EB6841;}
	.st6{fill:#EC1C24;}
	.st7{fill:#C7B29E;}
	.st8{fill:#404041;}
	.st9{fill:#FFFFFF;}
	.st10{fill:#7D122E;}
	.st11{fill:#E6E7E8;}
	.st12{fill:#F8A770;}
	.st13{fill:#F1985C;}
	.st14{font-family:'ArialMT';}
	.st15{font-size:12px;}
	.st16{fill:#824737;}
	.st17{font-family:'AlegreyaSans-Medium';}
	.st18{font-size:57px;}
	.st19{fill:#663F36;}
</style>
<g id="objects">
	<g id="XMLID_1_">
		<g id="XMLID_2_">
			<g id="XMLID_80_">
				<path id="XMLID_82_" class="st0" d="M335.9,72c0,0,13.1,0.4,26.1-17.3c13.1-17.6,15.5-37.4,15.5-37.4
					c10.8,33.8,3.5,58.8-26.8,78.3L335.9,72z"/>
				<path id="XMLID_81_" class="st1" d="M377.5,17.3c10.8,33.8,3.5,58.8-26.8,78.3l-5-7.9C372,68.7,377.2,49.2,377.5,17.3z"/>
			</g>
			<g id="XMLID_77_">
				<path id="XMLID_79_" class="st0" d="M201.4,72c0,0-13.1,0.4-26.1-17.3c-13.1-17.6-15.5-37.4-15.5-37.4
					c-10.8,33.8-3.5,58.8,26.8,78.3L201.4,72z"/>
				<path id="XMLID_78_" class="st1" d="M159.7,17.3c-10.8,33.8-3.5,58.8,26.8,78.3l5-7.9C165.2,68.7,160.1,49.2,159.7,17.3z"/>
			</g>
			<path id="XMLID_76_" class="st2" d="M360,181.7c9.1,0,16.5-12.4,16.5-27.7c0-15.2-7.4-27.7-16.5-27.7s-16.5,12.4-16.5,27.7
				S350.9,181.7,360,181.7z"/>
			<path id="XMLID_75_" class="st2" d="M171.6,181.7c9.1,0,16.5-12.4,16.5-27.7c0-15.2-7.4-27.7-16.5-27.7s-16.5,12.4-16.5,27.7
				C155,169.3,162.5,181.7,171.6,181.7z"/>
			<g id="XMLID_70_">
				<path id="XMLID_74_" class="st3" d="M111,175.5c4.1,5.7,5.4,9.3,2.5,11.3c-2.9,2.1-6-0.5-10.1-6.2s-6.2-10.6-3.3-12.7
					C103,165.9,106.9,169.8,111,175.5z"/>
				<path id="XMLID_73_" class="st4" d="M111.7,185.5c2.9-2.1,1.6-5.7-2.5-11.3c-0.6-0.8-1.2-1.6-1.7-2.3c-1.2-1.5-2.4-2.8-3.5-3.8
					c1.3,0.7,2.7,2,4.1,3.6c1,1.1,2,2.4,3,3.8c4.1,5.7,5.4,9.3,2.5,11.3c-1.1,0.8-2.2,0.9-3.4,0.4c-0.8-0.3-1.6-0.9-2.5-1.6
					c0.3,0.2,0.6,0.3,0.9,0.4C109.7,186.4,110.7,186.2,111.7,185.5z"/>
			</g>
			<path id="XMLID_69_" class="st3" d="M74.3,193.8c-2.8,7.7,3.2,13.6,8,19.5c2.4,2.9,1.1,7.5,4.8,8.9c11.3,4.2,23.9-1.8,28.2-13.3
				c4.2-11.5-1.5-24.2-12.9-28.4C91.2,176.3,78.6,182.2,74.3,193.8z"/>
			<g id="XMLID_66_">
				<path id="XMLID_68_" class="st3" d="M428.6,365.3c-6.8,1.7-10.1,3.7-9.2,7.1s4.9,3.4,11.7,1.7c6.8-1.7,11.5-4.2,10.7-7.6
					C440.9,363,435.4,363.5,428.6,365.3z"/>
				<path id="XMLID_67_" class="st4" d="M421.7,372.5c-0.9-3.4,2.4-5.4,9.2-7.1c1-0.2,1.9-0.5,2.8-0.7c1.9-0.4,3.6-0.7,5.1-0.7
					c-1.4-0.3-3.3-0.2-5.4,0.2c-1.5,0.2-3.1,0.6-4.7,1c-6.8,1.7-10.1,3.7-9.2,7.1c0.3,1.3,1.1,2.1,2.3,2.5c0.8,0.3,1.8,0.4,2.9,0.3
					c-0.3-0.1-0.7-0.2-0.9-0.3C422.7,374.5,422,373.7,421.7,372.5z"/>
			</g>
			<path id="XMLID_65_" class="st2" d="M274.2,460.4c-24,67.3-46.9,80.5-69.6,72.4c-14.2-5.1-27.9-18.8-41.7-32.6
				c-7.3-7.3-14.7-14.7-22-20.7c-18.6-15.1-37.7-21.7-58.3,3.6l-4.4-3.5c23.5-28.8,45.2-21.5,66.2-4.4c7.6,6.2,15.1,13.7,22.5,21.1
				c13.3,13.4,26.6,26.6,39.6,31.3c19.6,7,39.9-5.9,62.4-69L274.2,460.4z"/>
			<path id="XMLID_64_" class="st5" d="M253.3,254.1c-0.4,3.8,4.6,14.5-4.6,25c-9.2,10.6-28.9,14.8-32.1,15.9s-5.3,16.2-2.5,51.5
				s12.3,24.3,10.9,54c-1.4,29.6-0.4,60.3-0.4,60.3s-23.3,33.2-40.2,54.3c-16.9,21.2-36.7,108-36.7,108h24.7
				c0,0,16.2-81.1,29.6-95.3c27.8-29.2,32-47.8,64.7-49.9c32.7,2.1,37,20.7,64.7,49.9c13.4,14.1,29.6,95.3,29.6,95.3h25
				c0,0-19.8-86.8-36.7-108c-16.9-21.2-40.2-54.3-40.2-54.3s2.8-28.2,1.4-57.9s6.4-21.2,9.2-56.4c2.8-35.3,0.7-50.4-2.5-51.5
				s-22.9-5.3-32.1-15.9s-4.2-21.3-4.6-25c0,0-8.8-1.8-13.6-3.9C262.1,252.3,253.3,254.1,253.3,254.1z"/>
			<path id="XMLID_63_" class="st2" d="M253.3,254.1c-0.1,1.4,0.4,3.7,0.8,6.6c3.9,0.6,8.2,1,12.8,1c4.6,0,8.9-0.3,12.8-1
				c0.3-2.9,0.9-5.2,0.8-6.6c0,0-8.8-1.8-13.6-3.9C262.1,252.3,253.3,254.1,253.3,254.1z"/>
			<path id="XMLID_62_" class="st2" d="M310.4,392.4c0.8-17.6,6.8-15.6,9.3-45.9c0.5-6.4,0.9-12.1,1.1-17.2
				c-5.4-5.4-14.3-11.6-14.3-11.6s4.2,13.1,3.2,29.3c-1.1,16.2-7.2,43.9-3.2,44.1C307,391.2,308.4,391.6,310.4,392.4z"/>
			<path id="XMLID_61_" class="st2" d="M174.9,612.2c4.9-22.6,17-73.5,27.3-84.4c27-28.4,31.8-46.7,62.1-49.7
				c31.1,2.7,36.6,21,63.9,49.7c10.4,10.9,22.4,61.8,27.3,84.4l6.5-4.7c0,0-18.3-68.8-27.9-80.8c-9.5-12-27.9-36.7-37.7-44.1
				c-9.9-7.4-32-12-32-12s-20.6,4.6-30.5,12s-28.2,32.1-37.7,44.1s-27.9,80.8-27.9,80.8L174.9,612.2z"/>
			<path id="XMLID_59_" class="st5" d="M176,607.1c-7.5-23.6-87.6-14-87.6,30.6c0,2.1,89.3-0.4,89.3-0.4s2.8-5.6,2.1-16.2
				C179.1,610.6,176,607.1,176,607.1z"/>
			<path id="XMLID_58_" class="st2" d="M91.4,623.6c-1.9,4.2-3,9-3,14.1c0,2.1,89.3-0.4,89.3-0.4s2.8-5.6,2.1-16.2
				c-0.7-10.6-3.8-14.1-3.8-14.1C170.6,646.8,119.1,623.7,91.4,623.6z"/>
			<path id="XMLID_57_" class="st5" d="M353.7,607.1c7.5-23.6,87.6-14,87.6,30.6c0,2.1-89.3-0.4-89.3-0.4s-2.8-5.6-2.1-16.2
				C350.6,610.6,353.7,607.1,353.7,607.1z"/>
			<path id="XMLID_56_" class="st6" d="M225.7,297.8c-6-0.4-46.1-14.8-67.9-23.9c-21.9-9.2-40-64.2-40-64.2l-20.5,7.8
				c0,0,17.7,49.8,35.4,66.7c17.6,16.9,84.6,42,84.6,42L225.7,297.8z"/>
			<path id="XMLID_55_" class="st5" d="M308,323.9c12.9,0.8,21.6,74.8,119.9,86.1l3.5-25.4c-53.4,8.6-99.9-88-114.3-89.6L308,323.9z
				"/>
			<path id="XMLID_54_" class="st2" d="M308,323.9c12.9,0.8,21.6,74.8,119.9,86.1l0.5-3.9c-7.6-0.9-32.7-4.4-52.2-17.1
				c-22.9-14.8-48.9-49.8-52.2-55.6c-2.4-4.2-10.4-10.4-14.8-13.7L308,323.9z"/>
			<path id="XMLID_53_" class="st3" d="M445.2,402.7c-2.7,7.7-11.2,8.4-18.6,9.9c-3.7,0.7-5.6,5.1-9.4,3.8
				c-11.4-4-17.3-16.7-13.2-28.2c4.1-11.6,16.6-17.7,28-13.7C443.4,378.5,449.3,391.1,445.2,402.7z"/>
			<path id="XMLID_52_" class="st7" d="M428.4,365.8c-10.4,0.7-20.6,0.7-30.6,0.1l-1.7,4.6l-1.4-4.8c-38.5-2.8-74.4-14.4-107.7-32.1
				c-3.8,2.2-9.4,5.5-9.4,5.5l2.7-9.2c-41.4-23.2-78.7-55.6-112.1-91.6c-7.4-1.2-13.7-1.5-14.4-0.4c-1,1.4,1.4-4.7,3.7-11.4
				c-15.1-17.1-29.4-34.9-42.8-52.7c-17.9,13.5-66.2,72.1-84.1,85.6c2.3,5,4.8,9.9,7.5,14.7c4.5-2.7,8.1-4.8,8.1-4.8L41,279.4
				c19.3,33.2,46.4,63.5,78.5,90c4.4-1.6,8.1-2.8,8.1-2.8s3.5-5.6,5.6-7.1c2.1-1.4,12.7-9.2,12.7-9.2l-19.8,24.4
				C153,396,183,414.5,214.7,430c4.1-6.8,9.9-16.3,9.9-14.7c0,1.6-2.6,10.6-4.6,17.2c29.8,14.1,60.9,25.3,92.1,33.4
				c4.4-4.5,7-9.3,7-9.3l0.9,11.3c23.4,5.6,46.9,9.4,69.7,11.1l6.2-9c0,0-0.3,4.7-0.6,9.4c6,0.4,12,0.6,17.9,0.7
				C429.2,438.9,424.5,387.9,428.4,365.8z"/>
			<g id="XMLID_49_">
				<path id="XMLID_51_" class="st3" d="M433.9,385c-8.5,0.5-15.2-1.7-15.1-4.9c0.1-3.2,7.1-6.3,15.6-6.8s14.5-2.1,15.1,4.9
					C450,385.2,442.3,384.5,433.9,385z"/>
				<path id="XMLID_50_" class="st4" d="M420.5,381c1,4.4,23.3,2.4,27.9,1.1c-1.7,2.2-5.6,2.7-10.1,2.9c-3.8,0.2-19.3,1.2-19.9-4.4
					c-0.3-3.3,2.3-3.8,5.2-5C422.7,376.4,419.6,376.6,420.5,381z"/>
			</g>
			<g id="XMLID_46_">
				<path id="XMLID_48_" class="st3" d="M434.2,395.4c-8.5-0.1-15-2.8-14.7-6c0.4-3.2,7.6-5.8,16-5.6c8.5,0.1,14.6-1,14.7,6
					C450.3,396.8,442.6,395.5,434.2,395.4z"/>
				<path id="XMLID_47_" class="st4" d="M421.2,390.3c0.7,4.5,23.1,4.1,27.8,3.2c-1.9,2-5.8,2.2-10.3,2.1
					c-3.8-0.1-19.4-0.3-19.5-5.9c-0.1-3.3,2.5-3.6,5.6-4.6C423.7,385.9,420.5,385.9,421.2,390.3z"/>
			</g>
			<g id="XMLID_43_">
				<path id="XMLID_45_" class="st3" d="M430.8,406.3c-8.4-1-14.7-4.4-14-7.5c0.7-3.2,8.1-4.9,16.5-3.9s14.6,0.5,14,7.5
					C446.7,409.4,439.2,407.3,430.8,406.3z"/>
				<path id="XMLID_44_" class="st4" d="M418.4,399.9c0.2,4.5,22.5,6.5,27.3,6.1c-2.1,1.8-6,1.6-10.5,1c-3.8-0.5-19.2-2.3-18.8-7.9
					c0.3-3.3,2.9-3.3,6.1-4C421.4,395.8,418.2,395.4,418.4,399.9z"/>
			</g>
			<g id="XMLID_40_">
				<path id="XMLID_42_" class="st3" d="M429.2,414.4c-7-2-11.8-5.6-10.8-8.2s7.5-3.1,14.5-1.1s12.3,2.4,10.8,8.2
					C442.2,419.2,436.2,416.4,429.2,414.4z"/>
				<path id="XMLID_41_" class="st4" d="M419.6,407.4c-0.4,3.8,18.2,8.5,22.2,8.8c-2,1.3-5.3,0.6-9-0.5c-3.1-0.9-15.9-4.5-14.8-9.2
					c0.7-2.7,2.9-2.4,5.7-2.6C422.7,404.3,420.1,403.6,419.6,407.4z"/>
			</g>
			<g id="XMLID_37_">
				<path id="XMLID_39_" class="st3" d="M94.4,187.4c6.2,5.8,12.8,8.4,14.8,5.8c2-2.6-1.5-9.4-7.6-15.2c-6.2-5.8-9.8-10.9-14.8-5.8
					C81.8,177.2,88.2,181.6,94.4,187.4z"/>
				<path id="XMLID_38_" class="st4" d="M107.2,192.7c-3.6,2.8-19.5-13-22.3-16.9c0,2.8,2.6,5.6,6,8.7c2.8,2.5,14.2,13.2,18.1,9.3
					c2.3-2.3,0.7-4.4-0.8-7.2C108.5,187.8,110.8,190,107.2,192.7z"/>
			</g>
			<g id="XMLID_34_">
				<path id="XMLID_36_" class="st3" d="M87.5,195.2c6.6,5.3,13.4,7.4,15.2,4.7c1.8-2.7-2.2-9.2-8.8-14.6
					c-6.6-5.3-10.6-10.1-15.2-4.7C74.2,186,80.9,189.8,87.5,195.2z"/>
				<path id="XMLID_35_" class="st4" d="M100.7,199.5c-3.3,3-20.4-11.5-23.5-15.2c0.2,2.8,3,5.4,6.6,8.2c3,2.3,15.1,12.1,18.8,7.9
					c2.1-2.5,0.3-4.4-1.4-7.1C101.6,194.5,104.1,196.5,100.7,199.5z"/>
			</g>
			<g id="XMLID_31_">
				<path id="XMLID_33_" class="st3" d="M83.2,205.7c7.1,4.6,14.1,6,15.6,3.1s-3.1-9-10.2-13.6S77,186.3,73,192.1
					C68.9,198,76,201.1,83.2,205.7z"/>
				<path id="XMLID_32_" class="st4" d="M96.8,208.7c-3,3.3-21.5-9.3-24.9-12.7c0.5,2.7,3.6,5.1,7.4,7.5c3.2,2,16.3,10.5,19.5,5.9
					c1.9-2.7-0.1-4.4-2.1-7C97.1,203.7,99.8,205.4,96.8,208.7z"/>
			</g>
			<g id="XMLID_28_">
				<path id="XMLID_30_" class="st3" d="M79.2,213c6.6,2.9,12.7,3.2,13.6,0.5c0.9-2.6-3.8-7.2-10.5-10.1c-6.6-2.9-11-6-13.6-0.5
					C66.1,208.3,72.6,210,79.2,213z"/>
				<path id="XMLID_29_" class="st4" d="M91.1,213.7c-2.1,3.2-19.4-5-22.7-7.4c0.8,2.2,3.7,3.8,7.3,5.3c3,1.3,15.2,6.7,17.2,2.4
					c1.2-2.5-0.7-3.7-2.7-5.6C90.7,209.4,93.2,210.5,91.1,213.7z"/>
			</g>
			<path id="XMLID_27_" class="st5" d="M266.9,258.3c54.6,0,99.1-49.8,99.1-110.8S321.5,36.7,266.9,36.7s-99.1,49.8-99.1,110.8
				C167.8,208.6,212.3,258.3,266.9,258.3z"/>
			<path id="XMLID_26_" class="st3" d="M265.1,251.3c46.6,0,84.6-42.5,84.6-94.5c0-52.1-38-94.5-84.6-94.5s-84.6,42.5-84.6,94.5
				S218.5,251.3,265.1,251.3z"/>
			<g id="XMLID_23_">
				<path id="XMLID_25_" class="st8" d="M216.5,170.6c8,0,14.6-6.3,14.6-14s-6.6-14-14.6-14s-14.6,6.3-14.6,14
					S208.4,170.6,216.5,170.6z"/>
				<path id="XMLID_24_" class="st9" d="M220.6,159.7c3.2,0,5.9-2.5,5.9-5.7c0-3.1-2.6-5.7-5.9-5.7c-3.2,0-5.9,2.5-5.9,5.7
					C214.7,157.1,217.3,159.7,220.6,159.7z"/>
			</g>
			<g id="XMLID_20_">
				<path id="XMLID_22_" class="st8" d="M307.1,172.5c8,0,14.6-6.3,14.6-14s-6.6-14-14.6-14s-14.6,6.3-14.6,14
					S299.1,172.5,307.1,172.5z"/>
				<path id="XMLID_21_" class="st9" d="M311.2,161.6c3.2,0,5.9-2.5,5.9-5.7c0-3.1-2.6-5.7-5.9-5.7s-5.9,2.5-5.9,5.7
					C305.3,159.1,308,161.6,311.2,161.6z"/>
			</g>
			<path id="XMLID_19_" class="st10" d="M208.7,198.3c0,0,0.4,15.2,22.2,30.3c10.6,7.4,22.9,10.4,34.2,10.7
				c11.3-0.3,23.6-3.3,34.2-10.7c21.9-15.2,22.2-30.3,22.2-30.3C303.9,207.3,226.3,207.3,208.7,198.3z"/>
			<path id="XMLID_18_" class="st6" d="M241.7,234.5c7.7,3.2,15.8,4.6,23.4,4.8c7.7-0.2,15.7-1.6,23.4-4.8c1.5-1.5,2.3-3.2,2.3-4.9
				c0-6.5-11.5-11.8-25.8-11.8c-14.2,0-25.8,5.3-25.8,11.8C239.3,231.3,240.2,233,241.7,234.5z"/>
			<path id="XMLID_17_" class="st9" d="M310,201.7c-23.5,4.5-68.3,4.4-91-0.2v5.3c0,3.2,2.6,5.8,5.8,5.8h79.4c3.2,0,5.8-2.6,5.8-5.8
				V201.7z"/>
			<path id="XMLID_16_" class="st9" d="M302.5,226.3h-74.7c1,0.8,2,1.5,3.2,2.3c10.6,7.4,22.9,10.4,34.2,10.7
				c11.3-0.3,23.6-3.3,34.2-10.7C300.4,227.8,301.5,227.1,302.5,226.3z"/>
			<path id="XMLID_15_" class="st11" d="M230.9,228.7c2-0.4,4-0.5,6-0.5c4.1,0.1,7.3,5,7.7,4.4s1.6-3.5,1.6-3.5s11.5-0.9,14.5-0.4
				c3,0.4,4.4,4.2,4.4,4.2s1.5-3.1,2.8-3.4c1.3-0.3,15.2-1.1,16.5-0.7c1.3,0.4,2,4,2.5,3.4c0.4-0.5,1.2-2.6,2.6-2.9
				c0.7-0.1,4.7,0,8.6,0.2c0.4-0.3,0.8-0.5,1.2-0.8c1.1-0.8,2.2-1.5,3.2-2.3h-74.7C228.7,227.1,229.8,227.8,230.9,228.7
				C230.9,228.6,230.9,228.6,230.9,228.7z"/>
			<path id="XMLID_14_" class="st11" d="M219,206.7c0,3.2,2.6,5.8,5.8,5.8h79.4c3.2,0,5.8-2.6,5.8-5.8v-5c-0.4,0.1-0.7,0.1-1.1,0.2
				c-0.4,2.5-1.1,5.2-2.2,6.8c-2.4,3.6-5.2,2.5-9.2,2.4s-12.2,0.3-13.1,0.2c-1-0.1-2.2-2.7-2.2-2.7s-1.1,1.7-2.5,2.8
				c-1.3,1.1-16.2-0.2-17.8-0.1c-1.6,0.1-2.5-2.6-2.5-2.6s-2.9,3-4.8,2.8c-1.9-0.2-9.1-0.9-9.7-1.1c-0.6-0.2-1.5-1.9-1.7-3.2
				c-0.2-1.2-1.6,3.2-2.7,3.8c-1.1,0.6-15.3,0.7-18.3-1.3c-1.9-1.3-2.9-5.1-3.4-8.3v5.3L219,206.7L219,206.7z"/>
			<path id="XMLID_13_" class="st12" d="M304.9,73.3c0,0,11.4,10.1-1.1,27.9S255,130.5,255,130.5s17.7-15.9,19.4-24.3
				c0,0-0.4,7.4-22.2,13.4c-21.9,6-39.9,0.7-37.7,1.8c2.1,1.1,30.3-16.9,30.3-16.9s-11.5,3.8-32.8,5.6c-21.3,1.8-35.3-6-32.1-4.9
				s20.4-9.1,20.4-9.1s7.3-12.1,19.2-19.6C249.1,57.6,272.1,55.2,304.9,73.3z"/>
			<path id="XMLID_12_" class="st13" d="M304.9,73.3c0,0,11.4,10.1-1.1,27.9S255,130.5,255,130.5s17.7-15.9,19.4-24.3
				c0,0-0.4,7.4-22.2,13.4c-21.9,6-39.9,0.7-37.7,1.8c2.1,1.1,30.3-16.9,30.3-16.9s-11.5,3.8-32.8,5.6c-21.3,1.8-35.3-6-32.1-4.9
				s20.4-9.1,20.4-9.1s1.1-1.9,3.2-4.6c15.5-5.8,20.6-12.6,20.6-12.6s-21.3,25-22.9,25.6c-1.6,0.5,15.2,0.7,32.1-4.9
				s27.9-8.3,27.9-8.3s-21.5,28.6-22.4,28.9c-0.9,0.4,10.2-2.3,27.3-13.8s16.8-17.6,16.8-17.6s0.7,2.8-0.4,10.4s-9.9,21.3-9.9,21.3
				s16.2-11.3,25.9-27c5.3-8.6,5.4-15.9,4.3-21.1C303.5,72.5,304.2,72.9,304.9,73.3z"/>
			<path id="XMLID_11_" class="st13" d="M292,91.7c-4.8,10.1-7.9,12.7-6.7,11.3c1.2-1.4,5.1-12.5,3.7-21.5s-3.9-13.2-3-12.7
				C296.8,75.3,297.1,81,292,91.7z"/>
			<path id="XMLID_10_" class="st13" d="M257.3,105.8c2.8-2.3,10.8-11.1,12.5-22.9c1.8-11.8,1.8-16.9,1.8-16.9
				C287.8,91.1,255.6,107.2,257.3,105.8z"/>
			<path id="XMLID_9_" class="st13" d="M216.4,97.6c1.4,0.2,18.5-13.1,28.8-22.6c10.2-9.5,12-12.7,11.8-11.3
				C253.2,93.3,214.3,97.3,216.4,97.6z"/>
			<path id="XMLID_8_" class="st4" d="M259.7,177.8c-3.6,0.1-11.4,0.4-10.6,1.9c0.9,1.7,4.9,4.4,10.6,5.6c5.7-1.3,9.7-3.9,10.6-5.6
				C271.1,178.2,263.3,177.9,259.7,177.8z"/>
			<path id="XMLID_7_" class="st0" d="M79.2,467.1c-0.9,2.3-17.4,37.6-17.4,37.6l32.3-24.9L79.2,467.1z"/>
			<polygon id="XMLID_6_" class="st8" points="61.9,504.7 94.1,479.8 86.7,473.4 			"/>
			<path id="XMLID_5_" class="st2" d="M438.2,623.6c1.9,4.2,3,9,3,14.1c0,2.1-89.3-0.4-89.3-0.4s-2.8-5.6-2.1-16.2
				c0.7-10.6,3.8-14.1,3.8-14.1C359.1,646.8,410.6,623.7,438.2,623.6z"/>
			<path id="XMLID_4_" class="st2" d="M403.7,603.1c16.6,1.8,30.3,16.3,22,17.3c-4.7,0.5-5.8-5-13.4-8.6s-17.6-3.3-17.5-6.3
				C395,602.5,403.7,603.1,403.7,603.1z"/>
			<path id="XMLID_3_" class="st13" d="M234.8,136.8c-0.9-0.5-6.4-7.2-20.8-5.5c-14.5,1.8-21.5,10.6-21.5,10.6
				C200.5,119.7,234.2,118.8,234.8,136.8z"/>
			<path id="XMLID_83_" class="st13" d="M292.1,136.8c0.9-0.5,6.4-7.2,20.8-5.5c14.5,1.8,21.5,10.6,21.5,10.6
				C326.4,119.7,292.7,118.8,292.1,136.8z"/>
		</g>
		<text class="st14 st15">  </text>
		<text transform="matrix(1 0 0 1 75.2134 255.657)" class="st14 st15"> </text>
		<text transform="matrix(1 0 0 1 154.7439 338.0751)" class="st16 st17 st18"> </text>
		<text transform="matrix(1 0 0 1 234.7521 389.0066)" class="st16 st17 st18"> </text>
		<text transform="matrix(1 0 0 1 378.4781 433.2144)" class="st14 st15"> </text>
		<text transform="matrix(1 0 0 1 381.7876 433.6181)" class="st14 st15"> </text>
		<text id="XMLID_84_" class="st14 st15"> </text>
	</g>
</g>
<g>
	<path class="st19" d="M104.6,277.8l20.5-15.3c0.7-0.5,1.3-0.4,1.9,0.3l5.4,7.2c1.6,2.1,2.2,4.3,1.9,6.6c-0.3,2.3-1.5,4.2-3.7,5.8
		s-4.4,2.2-6.7,1.9c-2.3-0.3-4.2-1.5-5.8-3.6l-3.8-5.1l-7.3,5.4c-0.7,0.5-1.3,0.4-1.9-0.3l-0.8-1
		C103.8,278.9,103.9,278.3,104.6,277.8z M117.1,273.4l3.4,4.6c1,1.4,2.2,2.1,3.6,2.3c1.4,0.2,2.7-0.2,4.1-1.2c1.4-1,2.1-2.2,2.3-3.5
		c0.2-1.3-0.2-2.7-1.2-4.1l-3.5-4.7L117.1,273.4z"/>
	<path class="st19" d="M121.2,292.7c0.7-0.6,1.4-1,2.1-1.2c0.7-0.2,1.4-0.3,2.1-0.2c0.7,0.1,1.4,0.2,2.1,0.6c0.7,0.3,1.4,0.7,2,1.1
		c0.6,0.4,1.2,0.9,1.9,1.4c0.6,0.6,1.2,1.1,1.6,1.5s0.9,1,1.3,1.5l0.7,0.8l0.4-0.3c2.2-1.9,2.4-4,0.5-6.2c-1-1.2-2.3-2.1-4-2.7
		c-0.3-0.1-0.5-0.3-0.6-0.4c-0.3-0.3-0.3-0.7-0.2-1.3l0.2-0.6c0.1-0.3,0.3-0.6,0.5-0.7c0.3-0.3,0.7-0.3,1.2-0.1
		c2.2,0.8,4,2.1,5.6,3.9c1.6,1.9,2.4,3.9,2.3,5.8c-0.1,1.9-1.2,3.8-3.1,5.4l-8.7,7.5c-0.7,0.6-1.3,0.5-1.9-0.1l-0.6-0.7
		c-0.6-0.7-0.5-1.3,0.2-1.9l0.9-0.8c0.2-0.1,0.3-0.3,0.5-0.4c0.2-0.1,0.3-0.2,0.4-0.3l0.1-0.1l-0.1-0.1c-0.1,0-0.3,0.1-0.5,0.1
		c-0.2,0-0.6,0.1-1.2,0.1c-0.6,0-1.2,0-1.8-0.1c-0.6-0.1-1.3-0.4-2-0.8c-0.7-0.4-1.4-0.9-2-1.6c-1.2-1.4-1.8-3-1.9-4.7
		C119.1,295.3,119.8,293.9,121.2,292.7z M124,295.5c-0.7,0.6-1,1.3-1.1,2.3c-0.1,0.9,0.3,1.8,1.1,2.7c0.7,0.8,1.6,1.3,2.7,1.6
		s2.1,0.2,3.1-0.1c1-0.3,1.9-0.8,2.7-1.5l0.7-0.6l-0.7-0.8C128.9,294.9,126,293.7,124,295.5z"/>
	<path class="st19" d="M139.1,305.7c2.1-2.1,4.4-3.2,6.9-3.4s4.7,0.8,6.6,2.8c0.7,0.7,1.2,1.4,1.5,2.1c0.4,0.7,0.6,1.4,0.7,1.9
		c0.1,0.5,0.1,1,0.1,1.5c0,0.5-0.1,0.8-0.2,1l-0.1,0.4l0.1,0.1c0.1-0.2,0.2-0.3,0.4-0.5l0.8-0.8c0.5-0.5,1.1-0.5,1.7,0.2l0.7,0.7
		c0.6,0.6,0.6,1.3,0,1.9l-12.9,12.6c-0.9,0.9-1.9,1.6-2.9,2c-1,0.5-2,0.7-3,0.7c-0.9,0-1.9-0.1-2.8-0.4c-0.9-0.3-1.8-0.7-2.6-1.2
		c-0.8-0.5-1.6-1.2-2.3-1.9c-1.6-1.6-2.7-3.3-3.3-5c-0.2-0.6-0.2-1,0.2-1.4c0.1-0.1,0.3-0.3,0.6-0.4l0.7-0.3c0.6-0.2,1-0.2,1.3,0.2
		c0.1,0.1,0.2,0.3,0.3,0.5c0.7,1.5,1.5,2.8,2.4,3.7c0.6,0.6,1.3,1.1,1.9,1.5c0.7,0.4,1.4,0.6,2.1,0.8c0.7,0.1,1.5,0,2.2-0.2
		s1.5-0.8,2.2-1.5l1.3-1.2l1-0.8l-0.1-0.1c-2.5,0.7-4.7,0.1-6.7-1.9c-1.3-1.3-2.1-2.8-2.4-4.4c-0.3-1.6-0.2-3.3,0.5-4.9
		C136.7,308.6,137.7,307.1,139.1,305.7z M142,308.4c-1.6,1.5-2.5,3.1-2.7,4.8c-0.2,1.7,0.3,3.1,1.6,4.4c0.5,0.5,1.1,0.9,1.7,1.2
		c0.6,0.3,1.3,0.4,2,0.4c0.7,0,1.5-0.2,2.4-0.6s1.7-1.1,2.6-2c3.3-3.2,3.6-6.1,1-8.8c-1.2-1.3-2.6-1.9-4.1-1.7
		C144.9,306.2,143.5,307,142,308.4z"/>
	<path class="st19" d="M155.5,323c2.1-2.4,4.5-3.6,7.3-3.8c2.7-0.2,5.2,0.7,7.3,2.7c2,1.8,3,3.9,3,6.3c0,2.3-1,4.6-3,6.7
		c-0.2,0.3-0.5,0.4-0.9,0.5c-0.4,0-0.7-0.1-1-0.3l-10.1-9c-1.3,1.7-1.9,3.4-1.7,5.2s1,3.3,2.4,4.6c1.3,1.2,2.9,1.9,4.7,2
		c0.3,0.1,0.6,0.2,0.7,0.4c0.3,0.3,0.4,0.7,0.3,1.1l-0.1,0.7c-0.1,0.4-0.2,0.7-0.5,0.9s-0.6,0.3-1,0.2c-2.5-0.3-4.7-1.3-6.5-2.9
		c-1.5-1.4-2.6-3-3.2-4.8s-0.7-3.6-0.3-5.4C153.3,326.1,154.2,324.5,155.5,323z M160,324.1l8.1,7.2c1.1-1.3,1.6-2.6,1.6-3.9
		c-0.1-1.3-0.6-2.4-1.6-3.4c-1.1-1-2.4-1.5-3.9-1.5C162.7,322.5,161.3,323,160,324.1z"/>
	<path class="st19" d="M176.6,352.6l15-20.7c0.5-0.7,1.1-0.8,1.9-0.3l1.2,0.9c0.6,0.4,0.8,1,0.8,1.7l-0.5,21.2c0,0.5-0.1,1.2-0.2,2
		c-0.1,0.8-0.2,1.4-0.2,1.9l-0.1,0.8l0.1,0c0.9-1.5,1.6-2.6,2.2-3.4l10-13.8c0.5-0.7,1.1-0.8,1.8-0.3l1.1,0.8
		c0.7,0.5,0.8,1.1,0.3,1.8l-15,20.7c-0.5,0.7-1.1,0.8-1.8,0.3l-1.2-0.9c-0.6-0.4-0.8-1-0.8-1.6l0.4-21.2c0-0.6,0.1-1.2,0.2-2
		c0.1-0.8,0.2-1.4,0.2-1.9l0.1-0.8l-0.1,0c-0.9,1.5-1.6,2.6-2.2,3.5l-10,13.8c-0.5,0.7-1.1,0.8-1.9,0.3l-1-0.7
		C176.2,354,176.1,353.4,176.6,352.6z"/>
	<path class="st19" d="M204.5,361.6c1-1.7,2.4-3,4.1-3.9c1.7-0.9,3.5-1.3,5.3-1.2c1.9,0.1,3.7,0.7,5.4,1.7c1.3,0.8,2.3,1.7,3.2,2.9
		c0.9,1.1,1.5,2.4,1.8,3.7c0.4,1.3,0.4,2.7,0.2,4.1c-0.2,1.4-0.7,2.8-1.5,4c-1,1.7-2.4,3-4.1,3.9c-1.7,0.9-3.5,1.3-5.4,1.2
		c-1.9-0.1-3.7-0.6-5.4-1.7c-1.7-1-3-2.4-4-4c-0.9-1.6-1.4-3.4-1.4-5.3C202.9,365.1,203.4,363.3,204.5,361.6z M207.8,363.6
		c-1.1,1.8-1.4,3.6-1,5.5s1.5,3.3,3.1,4.3c1.7,1,3.4,1.3,5.3,0.8c1.9-0.5,3.3-1.6,4.4-3.4c1.1-1.8,1.4-3.6,1-5.4
		c-0.4-1.9-1.5-3.3-3.1-4.3c-1.7-1-3.4-1.3-5.3-0.8S208.9,361.9,207.8,363.6z"/>
	<path class="st19" d="M229.3,367.1l0.2-0.4c0.4-0.8,1-1,1.8-0.5l1.3,0.7l2.1-3.9c0.4-0.8,1-1,1.8-0.6l1,0.6c0.8,0.4,0.9,1,0.5,1.8
		l-2.1,3.9l3.1,1.7c0.8,0.4,1,1,0.5,1.8l-0.2,0.4c-0.4,0.8-1,1-1.8,0.6l-3.1-1.7l-4.3,8c-0.3,0.6-0.6,1.3-0.7,1.8s-0.1,1.1,0,1.5
		c0.1,0.4,0.2,0.8,0.5,1.1s0.5,0.6,0.7,0.8s0.5,0.4,0.8,0.6c0.4,0.3,0.7,0.6,0.8,0.8s0,0.6-0.2,1l-0.4,0.7c-0.4,0.8-1.1,0.9-2,0.4
		c-1.9-1-3.2-2.4-3.8-4.2s-0.4-3.8,0.7-5.9l4.5-8.4l-1.2-0.7C229.1,368.5,228.9,367.9,229.3,367.1z"/>
	<path class="st19" d="M250.4,378l0.2-0.5c0.2-0.4,0.4-0.6,0.7-0.7s0.6-0.1,1,0.1l1.1,0.5l0.4-0.9c0.5-1.1,1.1-2,1.9-2.7
		c0.7-0.7,1.5-1.2,2.2-1.4c0.7-0.2,1.5-0.4,2.2-0.4c0.8,0,1.4,0.1,2,0.2c0.5,0.1,1,0.3,1.5,0.5l0.4,0.2c0.8,0.4,1,0.9,0.6,1.7
		l-0.3,0.7c-0.3,0.7-0.9,1-1.8,0.6c-0.4-0.1-0.7-0.2-0.9-0.3c-0.3-0.1-0.6-0.1-1-0.1c-0.4,0-0.8,0.1-1.1,0.2
		c-0.3,0.2-0.7,0.4-1.1,0.8c-0.4,0.4-0.7,0.9-1,1.6L257,379l3.1,1.4c0.4,0.2,0.6,0.4,0.7,0.7c0.1,0.3,0.1,0.7-0.1,1l-0.2,0.5
		c-0.2,0.4-0.4,0.6-0.7,0.7c-0.3,0.1-0.7,0.1-1-0.1l-3.1-1.4l-6.5,14.1c-0.4,0.8-1,1-1.8,0.7l-1.1-0.5c-0.8-0.4-1-1-0.7-1.8
		l6.5-14.1l-1.1-0.5c-0.4-0.2-0.6-0.4-0.7-0.7C250.2,378.7,250.2,378.3,250.4,378z"/>
	<path class="st19" d="M258.9,390.8c0.7-1.9,1.9-3.3,3.4-4.5s3.2-1.8,5.1-2.1c1.9-0.2,3.7,0,5.6,0.8c1.4,0.6,2.6,1.3,3.6,2.3
		c1,1,1.8,2.1,2.4,3.3c0.6,1.2,0.9,2.5,0.9,4s-0.2,2.8-0.8,4.2c-0.7,1.9-1.9,3.4-3.4,4.5c-1.5,1.2-3.2,1.9-5.1,2.1
		c-1.9,0.2-3.7,0-5.6-0.8s-3.4-1.8-4.6-3.3c-1.2-1.5-2-3.1-2.3-5C257.9,394.5,258.1,392.7,258.9,390.8z M262.5,392.2
		c-0.8,1.9-0.8,3.8,0,5.6c0.7,1.8,2,3,3.8,3.8c1.8,0.7,3.6,0.7,5.3-0.1c1.8-0.8,3-2.2,3.8-4.1c0.8-1.9,0.8-3.8,0-5.5
		c-0.7-1.8-2-3-3.8-3.7c-1.8-0.7-3.6-0.7-5.3,0.1C264.6,389,263.3,390.3,262.5,392.2z"/>
	<path class="st19" d="M282.5,403.1l3.6-11.1c0.3-0.8,0.8-1.1,1.7-0.8l1.2,0.4c0.8,0.3,1.1,0.8,0.8,1.6l-3.3,10.2
		c-0.2,0.7-0.4,1.4-0.5,1.9c-0.1,0.6-0.1,1.1,0,1.6c0.1,0.5,0.4,1,0.8,1.4c0.4,0.4,1,0.7,1.7,1c1.3,0.4,2.5,0.4,3.7,0.1
		c1.2-0.4,2.2-1,3-1.9c0.8-0.9,1.5-2,1.9-3.3l2.5-7.7c0.3-0.8,0.8-1.1,1.7-0.8l1.2,0.4c0.8,0.3,1.1,0.8,0.9,1.7l-5.5,16.7
		c-0.3,0.8-0.8,1.1-1.7,0.9l-1.1-0.3c-0.8-0.3-1.1-0.8-0.8-1.7l0.6-1.7l0.5-1.1l-0.1,0c-0.4,0.4-0.9,0.8-1.5,1.2
		c-0.6,0.4-1.2,0.7-2,1c-0.7,0.3-1.6,0.4-2.5,0.5s-1.8-0.1-2.7-0.4c-2.2-0.7-3.6-1.8-4.3-3.4C281.6,407.6,281.6,405.6,282.5,403.1z"
		/>
	<path class="st19" d="M304.1,416.2l4.5-17c0.2-0.8,0.8-1.2,1.6-0.9l1.1,0.3c0.9,0.2,1.2,0.8,1,1.6l-0.5,1.7l-0.4,1.1l0.1,0
		c0.3-0.4,0.8-0.8,1.3-1.2c0.5-0.4,1.1-0.8,1.9-1.1c0.7-0.3,1.6-0.6,2.5-0.6s1.9,0,3,0.3c2.3,0.6,3.8,1.7,4.5,3.2s0.8,3.5,0.2,6.1
		l-2.9,11.3c-0.2,0.9-0.8,1.2-1.6,1l-1.2-0.3c-0.8-0.2-1.1-0.8-0.9-1.6l2.7-10.4c0.2-0.8,0.3-1.4,0.4-2c0-0.6,0-1.1-0.1-1.7
		c-0.1-0.5-0.4-1-0.8-1.4s-1-0.7-1.8-0.9c-1.9-0.5-3.6-0.2-5.2,0.9s-2.7,2.6-3.2,4.7l-2.1,8.1c-0.2,0.9-0.8,1.2-1.6,0.9l-1.2-0.3
		C304.2,417.6,303.9,417,304.1,416.2z"/>
	<path class="st19" d="M328.4,413.4c0.6-3.1,2-5.5,4-7.1c2-1.6,4.4-2.1,7-1.6c0.9,0.2,1.6,0.5,2.3,0.8c0.7,0.4,1.2,0.8,1.6,1.2
		c0.4,0.4,0.7,0.8,0.9,1.2s0.4,0.7,0.5,1l0.1,0.4l0.1,0c0-0.4,0.1-0.8,0.2-1.3l1.6-8.2c0.2-0.9,0.7-1.2,1.6-1l1.2,0.2
		c0.9,0.2,1.2,0.7,1,1.6l-5.1,25.1c-0.2,0.9-0.7,1.2-1.6,1l-1-0.2c-0.9-0.2-1.2-0.7-1-1.5l0.2-1.1l0.3-1l-0.1,0
		c-0.1,0.1-0.2,0.2-0.3,0.4s-0.4,0.4-0.9,0.8c-0.5,0.4-1,0.7-1.5,0.9s-1.2,0.4-2.1,0.5s-1.7,0.1-2.6-0.1c-2.7-0.5-4.6-1.9-5.8-4.1
		C328.1,419.1,327.8,416.5,328.4,413.4z M332.3,414.1c-0.4,2.1-0.3,4,0.5,5.5c0.8,1.5,2,2.4,3.7,2.8c0.8,0.2,1.5,0.2,2.2,0
		c0.7-0.1,1.4-0.4,2.1-0.9c0.7-0.4,1.2-1.1,1.7-2c0.5-0.9,0.9-1.9,1.1-3.1c0.2-0.9,0.2-1.8,0.2-2.7c-0.1-0.9-0.3-1.7-0.6-2.4
		c-0.3-0.8-0.8-1.4-1.5-2c-0.7-0.5-1.4-0.9-2.4-1.1c-1.6-0.3-3.1,0-4.4,1.1C333.6,410.4,332.7,412,332.3,414.1z"/>
</g>
</svg>
