<?xml version="1.0" encoding="utf-8"?>
<!-- Generator: Adobe Illustrator 19.2.1, SVG Export Plug-In . SVG Version: 6.00 Build 0)  -->
<svg version="1.1" id="Layer_1" xmlns="http://www.w3.org/2000/svg" xmlns:xlink="http://www.w3.org/1999/xlink" x="0px" y="0px"
	 viewBox="0 0 273 373" style="enable-background:new 0 0 273 373;" xml:space="preserve">
<style type="text/css">
	.st0{fill:#FCBF5C;}
	.st1{fill:#D6A250;}
	.st2{fill:#FCDE0A;}
	.st3{fill:#3C3C33;}
	.st4{fill:#12496C;}
	.st5{fill:#FBCB0B;}
	.st6{fill:#E5CA0F;}
	.st7{fill:#36393A;}
	.st8{fill:#FFFFFF;}
	.st9{fill:#215D84;}
	.st10{fill:#A5A39B;}
</style>
<g>
	<g>
		<path class="st0" d="M29.7,181.6l-15.9,42.3l19.9,28.7c0,0-6.9,12-3.4,16.8c3.4,4.8,12.9,10.3,12.9,10.3l-9.5-66.8
			c0,0,15.1-5.5,14.4-20.2L29.7,181.6z"/>
	</g>
	<g>
		<path class="st0" d="M192.5,116.9c-0.7,0-1.4,0.1-2.1,0.2c0-0.1,0-0.1,0-0.2c0-3.1-0.2-6.2-0.7-9.3v0l0,0
			c-4.8-31.4-33.3-55.5-67.8-55.5c-36.3,0-65.9,26.6-68.4,60.3l-0.2,0v4.6c-0.7-0.1-1.4-0.2-2.1-0.2c-8.5,0-15.4,6.9-15.4,15.4
			s6.9,15.4,15.4,15.4c0.7,0,1.4-0.1,2.1-0.2v17.6c0,0,51,16.5,68.5,16.5c17.5,0,68.5-16.5,68.5-16.5l-0.2-17.7
			c0.7,0.1,1.5,0.2,2.3,0.2c8.5,0,15.4-6.9,15.4-15.4S201,116.9,192.5,116.9z"/>
	</g>
	<g>
		<path class="st1" d="M190.4,152.7c0,0-65.7,54.9-137.2,0.9v-3.7c0,0,56.6,56.5,137,0L190.4,152.7z"/>
	</g>
	<g>
		<path class="st2" d="M185.1,84.7c-3.7-26.6-30.6-47.3-63.3-47.3c-32.7,0-59.6,20.7-63.3,47.3H185.1z"/>
	</g>
	<g>
		<circle class="st3" cx="146.8" cy="122.1" r="4.3"/>
	</g>
	<g>
		<circle class="st3" cx="95.6" cy="122.1" r="4.3"/>
	</g>
	<g>
		<path class="st4" d="M197.9,300.1l-2.3,33.9C195.6,334,195.1,306,197.9,300.1z"/>
	</g>
	<g>
		<path class="st4" d="M55.2,299.5l2.3,33.9C57.5,333.5,58,305.5,55.2,299.5z"/>
	</g>
	<g>
		<path class="st2" d="M62.2,339.6c0,0,1,14.9-11.8,15.9c-12.9,1-17.5-9.3,3.3-16.2L62.2,339.6z"/>
	</g>
	<g>
		<path class="st2" d="M188.7,339.6c0,0-1,14.9,11.8,15.9s17.5-9.3-3.3-16.2L188.7,339.6z"/>
	</g>
	<g>
		<path class="st1" d="M103.7,127.9c0,0-6.6,5.3-16.6,0.7C87.1,128.6,96.2,135.9,103.7,127.9z"/>
	</g>
	<g>
		<path class="st1" d="M155,127.9c0,0-6.6,5.3-16.6,0.7C138.5,128.6,147.5,135.9,155,127.9z"/>
	</g>
	<g>
		<rect x="46" y="84.7" class="st5" width="151.5" height="12.7"/>
	</g>
	<g>
		<rect x="106.7" y="31.5" class="st5" width="24.7" height="53.1"/>
	</g>
	<g>
		<path class="st6" d="M105,42.2c0,0-27.4,13.7-36,33.6C69,75.7,75.2,49,105,42.2z"/>
	</g>
	<g>
		<path class="st6" d="M136.4,41.3c0,0,26.5,11.7,41.9,35.3C178.3,76.6,168.2,49.9,136.4,41.3z"/>
	</g>
	<g>
		<path class="st7" d="M93.1,144.8H90c0,0,15.9,17.9,29.7,4.4c4.5-4.4-3.5-14.1-12-7.7s-16.5-0.3-16.5-0.3L93.1,144.8z"/>
	</g>
	<g>
		<path class="st8" d="M48.1,192.6l-25.7-15.4l12.9-21.9l20,0.3c0,0,55.2,44.9,119.3,7.9l22.6-15.4l23.6,42.5l-12.3,21l-0.1,31.8H44
			l-4.6-29.6C39.4,213.7,48.1,207.7,48.1,192.6z"/>
	</g>
	<g>
		<path class="st7" d="M148.9,144.8h3.1c0,0-15.9,17.9-29.7,4.4c-4.5-4.4,3.5-14.1,12-7.7c8.5,6.4,16.5-0.3,16.5-0.3L148.9,144.8z"
			/>
	</g>
	<g>
		<path class="st9" d="M210.9,213.2c0,0-17.5-7.5-20.6-59.6l-15.8,9.9c0,0,9.3,48.2-52.3,50.4c-57.8,2.1-50.9-48.7-50.9-48.7
			l-16.1-9.6c0,0-0.7,52.1-21.6,57.2l16.1,125.8l16.5-3.1c-4.9-31.9,70.2-33.7,94.6-28.8s24.4,29.8,24.4,29.8l16.5,1.8L210.9,213.2z
			"/>
	</g>
	<g>
		<path class="st4" d="M185.5,216.6c0,0,11.3,68.9-61.7,68.9s-59.6-68.9-59.6-68.9S116,255.3,185.5,216.6z"/>
	</g>
	<g>
		<g>
			<path class="st9" d="M123.8,256.4c-16.6,0-59.5-37.4-61.3-39l1.4-1.5c0.4,0.4,44,38.5,59.9,38.5c15.9,0,60.9-35.7,61.3-36.1
				l1.3,1.6C184.6,221.3,140.5,256.4,123.8,256.4z"/>
		</g>
	</g>
	<g>
		<g>
			<g>
				<path class="st9" d="M183.5,223.6l-2.1-0.1c0.1-1.2,0.1-2,0.1-2l2.1,0C183.6,221.5,183.6,222.3,183.5,223.6z"/>
			</g>
		</g>
		<g>
			<g>
				<path class="st9" d="M123.9,280.7c-0.7,0-1.3,0-2,0l0-2.1c0.6,0,1.3,0,2,0c0.7,0,1.5,0,2.2,0l0.1,2.1
					C125.5,280.7,124.7,280.7,123.9,280.7z M117.7,280.5c-1.5-0.1-2.9-0.2-4.2-0.4l0.3-2c1.3,0.2,2.7,0.3,4.1,0.4L117.7,280.5z
					 M130.4,280.4l-0.2-2.1c1.4-0.1,2.8-0.3,4.1-0.4l0.3,2C133.3,280.2,131.9,280.3,130.4,280.4z M109.3,279.4
					c-1.4-0.3-2.8-0.6-4.2-0.9l0.5-2c1.3,0.3,2.7,0.6,4,0.9L109.3,279.4z M138.9,279.3l-0.4-2c1.4-0.3,2.7-0.6,4-1l0.6,2
					C141.7,278.6,140.3,279,138.9,279.3z M101,277.3c-1.4-0.5-2.7-1-4-1.5l0.8-1.9c1.2,0.5,2.5,1,3.8,1.5L101,277.3z M147.1,277
					l-0.7-1.9c1.3-0.5,2.6-1,3.8-1.5l0.8,1.9C149.8,276,148.4,276.5,147.1,277z M93.1,274c-1.3-0.7-2.5-1.4-3.7-2.2l1.1-1.7
					c1.1,0.7,2.3,1.4,3.5,2.1L93.1,274z M154.9,273.4l-1-1.8c1.2-0.7,2.4-1.4,3.5-2.1l1.2,1.7C157.4,272,156.1,272.8,154.9,273.4z
					 M86,269.3c-1.1-0.9-2.2-1.8-3.2-2.8l1.4-1.5c1,0.9,2,1.8,3.1,2.7L86,269.3z M162,268.7l-1.3-1.6c1.1-0.9,2.1-1.8,3.1-2.7
					l1.4,1.5C164.2,266.8,163.1,267.8,162,268.7z M79.8,263.4c-0.9-1.1-1.8-2.2-2.7-3.4l1.7-1.2c0.8,1.1,1.7,2.2,2.5,3.2L79.8,263.4
					z M168.2,262.7l-1.5-1.4c0.9-1,1.8-2.1,2.6-3.2l1.6,1.2C170,260.5,169.1,261.7,168.2,262.7z M74.7,256.4c-0.7-1.2-1.4-2.5-2-3.8
					l1.8-0.9c0.6,1.2,1.3,2.5,2,3.6L74.7,256.4z M173.3,255.9l-1.7-1.1c0.7-1.1,1.4-2.3,2.1-3.6l1.8,1
					C174.7,253.4,174,254.7,173.3,255.9z M71,248.8c-0.5-1.3-1-2.7-1.5-4l2-0.6c0.4,1.3,0.9,2.6,1.4,3.9L71,248.8z M177.3,248.3
					l-1.9-0.8c0.6-1.3,1.1-2.6,1.6-3.8l1.9,0.7C178.5,245.7,177.9,247,177.3,248.3z M68.3,240.6c-0.4-1.4-0.7-2.8-0.9-4.2l2-0.4
					c0.2,1.3,0.5,2.7,0.9,4L68.3,240.6z M180.3,240.4l-2-0.6c0.4-1.4,0.8-2.7,1.1-4l2,0.5C181.2,237.6,180.8,238.9,180.3,240.4z
					 M66.8,232.2c-0.2-1.5-0.3-3-0.4-4.3l2.1-0.1c0.1,1.2,0.2,2.6,0.4,4.1L66.8,232.2z M182.4,232.1l-2-0.4c0.3-1.5,0.5-2.9,0.7-4.1
					l2,0.3C182.9,229.1,182.7,230.6,182.4,232.1z"/>
			</g>
		</g>
		<g>
			<g>
				<path class="st9" d="M68.3,223.6l-2.1,0c0-1.4,0.1-2.1,0.1-2.1l2.1,0.1C68.3,221.6,68.3,222.3,68.3,223.6z"/>
			</g>
		</g>
	</g>
	<g>
		<circle class="st8" cx="124.5" cy="245.4" r="4.5"/>
	</g>
	<g>
		<g>
			<path class="st10" d="M218.3,194.5l-0.5-1l0.9-0.5l0.5,1L218.3,194.5z M216.7,191.7l-1-1.8l0.9-0.5l1,1.8L216.7,191.7z
				 M214.7,188.1l-1-1.8l0.9-0.5l1,1.8L214.7,188.1z M212.7,184.5l-1-1.8l0.9-0.5l1,1.8L212.7,184.5z M210.7,180.9l-1-1.8l0.9-0.5
				l1,1.8L210.7,180.9z M208.7,177.3l-1-1.8l0.9-0.5l1,1.8L208.7,177.3z M206.7,173.7l-1-1.8l0.9-0.5l1,1.8L206.7,173.7z
				 M204.7,170.1l-1-1.8l0.9-0.5l1,1.8L204.7,170.1z M202.7,166.5l-1-1.8l0.9-0.5l1,1.8L202.7,166.5z M200.7,163l-1-1.8l0.9-0.5
				l1,1.8L200.7,163z M198.7,159.4l-1-1.8l0.9-0.5l1,1.8L198.7,159.4z M196.7,155.8l-1-1.8l0.9-0.5l1,1.8L196.7,155.8z M194.7,152.2
				l-1-1.8l0.9-0.5l1,1.8L194.7,152.2z"/>
		</g>
	</g>
	<g>
		<g>
			<path class="st10" d="M50.3,190.1l-1.7-1.1l0.5-0.9l1.7,1.1L50.3,190.1z M46.8,187.9l-1.7-1.1l0.5-0.9l1.7,1.1L46.8,187.9z
				 M43.3,185.7l-1.7-1.1l0.5-0.9l1.7,1.1L43.3,185.7z M39.8,183.6l-1.7-1.1l0.5-0.9l1.7,1.1L39.8,183.6z M36.3,181.4l-1.7-1.1
				l0.5-0.9l1.7,1.1L36.3,181.4z M32.8,179.2l-1.7-1.1l0.5-0.9l1.7,1.1L32.8,179.2z M29.3,177.1l-1.7-1.1l0.5-0.9l1.7,1.1
				L29.3,177.1z M25.8,174.9l-1.6-1l0.5-0.9l1.6,1L25.8,174.9z"/>
		</g>
	</g>
	<g>
		<g>
			<path class="st10" d="M118.1,182.5l-0.7,0l0-1l0.7,0c0.4,0,0.9,0,1.3,0l0,1C119,182.5,118.6,182.5,118.1,182.5z M115.3,182.5
				c-0.7,0-1.4,0-2.1-0.1l0.1-1c0.7,0,1.4,0.1,2,0.1L115.3,182.5z M121.5,182.5l0-1c0.7,0,1.4,0,2-0.1l0.1,1
				C122.9,182.4,122.2,182.4,121.5,182.5z M111.2,182.3c-0.7,0-1.4-0.1-2.1-0.2l0.1-1c0.7,0.1,1.4,0.1,2,0.2L111.2,182.3z
				 M125.6,182.3l-0.1-1c0.7,0,1.4-0.1,2-0.2l0.1,1C127,182.2,126.3,182.2,125.6,182.3z M107.1,181.9c-0.7-0.1-1.4-0.2-2.1-0.3
				l0.1-1c0.7,0.1,1.4,0.2,2,0.2L107.1,181.9z M129.7,181.9l-0.1-1c0.7-0.1,1.4-0.1,2-0.2l0.1,1
				C131.1,181.8,130.4,181.8,129.7,181.9z M133.8,181.4l-0.1-1c0.7-0.1,1.4-0.2,2-0.3l0.2,1C135.2,181.2,134.5,181.3,133.8,181.4z
				 M103,181.4c-0.7-0.1-1.4-0.2-2-0.3l0.2-1c0.7,0.1,1.3,0.2,2,0.3L103,181.4z M137.9,180.8l-0.2-1c0.7-0.1,1.4-0.2,2-0.4l0.2,1
				C139.3,180.6,138.6,180.7,137.9,180.8z M98.9,180.6c-0.7-0.1-1.3-0.3-2-0.4l0.2-1c0.7,0.2,1.3,0.3,2,0.4L98.9,180.6z M142,180
				l-0.2-1c0.7-0.1,1.3-0.3,2-0.4l0.2,1C143.3,179.8,142.7,179.9,142,180z M94.9,179.7c-0.7-0.2-1.3-0.4-2-0.5l0.3-1
				c0.7,0.2,1.3,0.4,2,0.5L94.9,179.7z M146,179.2l-0.2-1c0.7-0.2,1.3-0.3,2-0.5l0.2,1C147.4,178.9,146.7,179,146,179.2z
				 M90.9,178.6c-0.7-0.2-1.3-0.4-2-0.6l0.3-1c0.6,0.2,1.3,0.4,1.9,0.6L90.9,178.6z M150,178.2l-0.3-1c0.7-0.2,1.3-0.4,2-0.5l0.3,1
				C151.4,177.8,150.7,178,150,178.2z M87,177.2c-0.6-0.2-1.3-0.5-1.9-0.7l0.4-1c0.6,0.3,1.3,0.5,1.9,0.7L87,177.2z M154,177.1
				l-0.3-1c0.7-0.2,1.3-0.4,2-0.6l0.3,1C155.4,176.7,154.7,176.9,154,177.1z M158,175.9l-0.3-1c0.7-0.2,1.3-0.4,1.9-0.6l0.3,1
				C159.3,175.5,158.6,175.7,158,175.9z M83.2,175.7c-0.6-0.3-1.3-0.6-1.9-0.8l0.4-0.9c0.6,0.3,1.2,0.6,1.9,0.8L83.2,175.7z
				 M161.9,174.6l-0.3-1c0.7-0.2,1.3-0.5,1.9-0.7l0.4,1C163.2,174.1,162.6,174.3,161.9,174.6z M79.4,174c-0.6-0.3-1.2-0.6-1.8-0.9
				l0.5-0.9c0.6,0.3,1.2,0.6,1.8,0.9L79.4,174z M165.8,173.2l-0.4-1c0.7-0.3,1.3-0.5,1.9-0.7l0.4,1
				C167.1,172.6,166.4,172.9,165.8,173.2z M75.7,172c-0.6-0.3-1.2-0.7-1.8-1l0.5-0.9c0.6,0.4,1.2,0.7,1.8,1L75.7,172z M169.6,171.6
				l-0.4-0.9c0.7-0.3,1.3-0.6,1.9-0.8l0.4,0.9C170.9,171.1,170.3,171.3,169.6,171.6z M173.4,170L173,169c1.2-0.6,1.8-0.9,1.8-0.9
				l0.5,0.9C175.3,169.1,174.6,169.4,173.4,170z M72.2,169.9c-0.4-0.3-0.9-0.6-1.3-0.9l0.6-0.9c0.4,0.3,0.9,0.6,1.3,0.8L72.2,169.9z
				"/>
		</g>
	</g>
	<g>
		<g>
			<path class="st4" d="M121.6,219.2l0-1c1.4,0,2.8-0.1,4.1-0.1l0,1C124.4,219.1,123,219.2,121.6,219.2z M117.5,219.1
				c-1.4,0-2.8-0.1-4.1-0.2l0.1-1c1.3,0.1,2.7,0.2,4.1,0.2L117.5,219.1z M129.9,218.8l-0.1-1c1.4-0.1,2.8-0.3,4.1-0.4l0.1,1
				C132.6,218.5,131.3,218.7,129.9,218.8z M109.2,218.5c-1.4-0.2-2.8-0.4-4.1-0.6l0.2-1c1.3,0.2,2.7,0.4,4,0.6L109.2,218.5z
				 M138.1,217.7l-0.2-1c1.4-0.2,2.7-0.5,4-0.8l0.2,1C140.8,217.2,139.4,217.5,138.1,217.7z M101.1,217.1c-1.4-0.3-2.7-0.7-4-1.1
				l0.3-1c1.3,0.4,2.6,0.8,3.9,1.1L101.1,217.1z M146.1,215.9l-0.3-1c1.3-0.4,2.6-0.8,3.9-1.3l0.4,1
				C148.8,215,147.4,215.5,146.1,215.9z M93.2,214.5c-1.3-0.5-2.6-1.1-3.8-1.8l0.5-0.9c1.2,0.6,2.4,1.2,3.7,1.7L93.2,214.5z
				 M153.9,213l-0.4-0.9c1.2-0.6,2.5-1.2,3.6-1.8l0.5,0.9C156.4,211.8,155.1,212.4,153.9,213z M85.9,210.6c-1.2-0.8-2.3-1.6-3.4-2.4
				l0.6-0.8c1,0.8,2.1,1.6,3.3,2.4L85.9,210.6z M161.1,208.9l-0.6-0.8c1.1-0.8,2.2-1.6,3.2-2.4l0.7,0.8
				C163.4,207.3,162.2,208.1,161.1,208.9z M79.4,205.4c-1-1-1.9-2-2.8-3.1l0.8-0.6c0.8,1,1.8,2.1,2.7,3L79.4,205.4z M167.5,203.6
				l-0.7-0.7c0.9-1,1.8-2,2.7-3l0.8,0.6C169.3,201.5,168.4,202.6,167.5,203.6z M74.2,198.9c-0.8-1.1-1.5-2.4-2.1-3.6l0.9-0.5
				c0.6,1.2,1.3,2.4,2.1,3.5L74.2,198.9z M172.6,197.1l-0.9-0.6c0.7-1.1,1.4-2.3,2-3.5l0.9,0.5C174,194.7,173.3,195.9,172.6,197.1z
				 M70.3,191.6c-0.5-1.3-1-2.6-1.4-3.9l1-0.3c0.4,1.3,0.9,2.6,1.4,3.8L70.3,191.6z M176.3,189.6l-1-0.4c0.5-1.2,0.9-2.5,1.3-3.9
				l1,0.3C177.3,187,176.8,188.4,176.3,189.6z M67.8,183.7c-0.3-1.3-0.6-2.7-0.8-4.1l1-0.2c0.2,1.3,0.5,2.7,0.8,4L67.8,183.7z
				 M178.6,181.7l-1-0.2c0.3-1.3,0.5-2.7,0.6-4l1,0.1C179.1,178.9,178.9,180.3,178.6,181.7z M66.5,175.5c-0.1-1.4-0.2-2.8-0.2-4.1
				l1,0c0,1.4,0.1,2.7,0.2,4.1L66.5,175.5z M179.6,173.4l-1,0c0-0.9,0.1-1.8,0.1-2.7c0-0.5,0-1,0-1.4l1,0c0,0.5,0,0.9,0,1.4
				C179.7,171.6,179.7,172.5,179.6,173.4z M67.4,167.2l-1,0c0.1-2,0.2-3.5,0.3-4.1l1,0.1C67.6,163.8,67.5,165.3,67.4,167.2z
				 M178.4,165.2c-0.2-2.5-0.6-4-0.6-4l1-0.2c0,0.1,0.3,1.6,0.6,4.1L178.4,165.2z"/>
		</g>
	</g>
	<g>
		<path class="st4" d="M156.1,287.2c0,0-31.9,14.1-60,0C96.1,287.2,118.2,296.8,156.1,287.2z"/>
	</g>
	<g>
		<path class="st4" d="M210.9,213.2l-0.9,10.7c0,0-27-18.7-24.2-67.5l4.6-3.7C190.4,152.7,191.7,200.8,210.9,213.2z"/>
	</g>
	<g>
		<path class="st4" d="M58.5,157.3c0,0,2.6,57.6-23.1,69.4l-1.7-13.9c0,0,17.1-5.5,19.5-59.3L58.5,157.3z"/>
	</g>
	<g>
		<path class="st0" d="M218.7,186.7l44.3-82.5c0,0-9.3-23.3-11.7-25.4c-2.4-2.1-7.2,3.8-3.8,10.3c3.4,6.5,4.8,12.7-2.1,14.7
			c-6.9,2.1-11-3.4-10.6-6.2c0.3-2.7,0.3-2.7,0.3-2.7s-4.5-5.8-4.1,4.5c0.3,10.3,1,14.7,1,14.7l-35,33.9L218.7,186.7z"/>
	</g>
	<g>
		<path class="st8" d="M227.7,25c-2.8-6.3-9.2-9.9-15.8-9.3l6.6,14.8l-9.6,4.3L202.4,20c-4.8,4.5-6.4,11.6-3.6,18
			c2.8,6.3,9.3,9.9,15.8,9.3c0.1,0.3,0.1,0.5,0.2,0.7l22.9,51.4c1.2,2.6,4.3,3.8,6.9,2.7c2.6-1.2,3.8-4.3,2.7-6.9l-22.9-51.4
			c-0.1-0.2-0.3-0.5-0.4-0.7C228.8,38.6,230.5,31.4,227.7,25z"/>
	</g>
	<g>
		<g>
			
				<rect x="230.2" y="51" transform="matrix(0.9136 -0.4065 0.4065 0.9136 -9.2835 100.2206)" class="st10" width="2.1" height="42"/>
		</g>
	</g>
</g>
</svg>
